# xmcd
#
# Track frame offsets: 
#        182
#        17552
#        29432
#        41530
#        53800
#        65350
#        78340
#        91667
#        105965
#        119577
#        133052
#        145495
#
# Disc length: 2101 seconds
#
# Revision: 2
# Processed by: cddbd v1.5.1PL0 Copyright (c) Steve Scherf et al.
# Submitted via: ExactAudioCopy v0.95a5
#
DISCID=9908330c
DTITLE=Hank Williams, Jr. - Sensational Country Hits
DYEAR=1900
DGENRE=Country
TTITLE0=All For The Love Of Sunshine
TTITLE1=It's All Over But The Crying
TTITLE2=Cajun Baby
TTITLE3=Eleven Roses
TTITLE4=I Walked Out On Heaven
TTITLE5=So Sad (To Watch Love Go Bad)
TTITLE6=Raining In My Heart
TTITLE7=Pride's Not Hard To Swallow
TTITLE8=Removing The Shadow
TTITLE9=A Baby Again
TTITLE10=The Last Love Song
TTITLE11=Hank
EXTD=
EXTT0=
EXTT1=
EXTT2=
EXTT3=
EXTT4=
EXTT5=
EXTT6=
EXTT7=
EXTT8=
EXTT9=
EXTT10=
EXTT11=
PLAYORDER=
